# xmcd CD database file
#
# Track frame offsets:
#	150
#	12627
#	24160
#	37710
#	50537
#	64807
#	78012
#	90762
#	104067
#	117185
#	130362
#	144487
#	157047
#	171325
#	184562
#	202462
#	215552
#	230242
#	242545
#	257470
#	270867
#	286515
#	302592
#	315519
#	336532
#
# Disc length: 4644 seconds
#
# Revision: 3
# Processed by: cddbd v1.5.2PL0 Copyright (c) Steve Scherf et al.
# Submitted via: CDex 1.51
#
DISCID=59122219
DTITLE=Various Artist - Mega Salsa - CD 1
DYEAR=1996
DGENRE=Salsa
TTITLE0=Tito Puente - Arrollando
TTITLE1=Celia Cruz - Vaya Valende
TTITLE2=Cachao - Adelante
TTITLE3=La Sonara Matancera - Rico Guaguanco
TTITLE4=Irakere - Dile A Catalina
TTITLE5=Benny More - Cinturtta
TTITLE6=Los Van Van - Que Palo Es Ese
TTITLE7=Reve Y Su Charangon - Que Sento Es Ese
TTITLE8=Charlie Palmieri - Fiesta A La King
TTITLE9=Maria Bauzà - Azulito
TTITLE10=Grupo Folklorico Y Experimental Nuevayorquino - Anabacoa
TTITLE11=Joe Bataan - Mi Nube
TTITLE12=Mammy Oquendo Y Su Conjunto - Decidate
TTITLE13=Roberto Torres - El Caminante
TTITLE14=Saoco - Lejos Del Batey
TTITLE15=Damiron Y Chapuseaux - Ponte En Vala José
TTITLE16=Giovani Hidalgo - Mercy, Mercy, Mercy
TTITLE17=Adalberto Alvarez - Que No Daria Yo
TTITLE18=Eduardo Barreto - Que No Daria Yo
TTITLE19=Cesar Conception - Timbalero
TTITLE20=Chocolate - Sé Tu Historia
TTITLE21=Conjunto Libre - Bamboleate
TTITLE22=Pancho Cantaneo Y Los Cubaztecas - Come Candela
TTITLE23=Camilo Azuquita - Gigolo
TTITLE24=Ismael Rivera - Maria Teresa
EXTD=YEAR: 1996
EXTT0=
EXTT1=
EXTT2=
EXTT3=
EXTT4=
EXTT5=
EXTT6=
EXTT7=
EXTT8=
EXTT9=
EXTT10=
EXTT11=
EXTT12=
EXTT13=
EXTT14=
EXTT15=
EXTT16=
EXTT17=
EXTT18=
EXTT19=
EXTT20=
EXTT21=
EXTT22=
EXTT23=
EXTT24=
PLAYORDER=
